<svg width="9" height="11" viewBox="0 0 9 11" fill="none" xmlns="http://www.w3.org/2000/svg">
<mask id="path-1-outside-1_25_47" maskUnits="userSpaceOnUse" x="0.745361" y="0" width="8" height="11" fill="black">
<rect fill="white" x="0.745361" width="8" height="11"/>
<path fill-rule="evenodd" clip-rule="evenodd" d="M4.72673 9C6.37329 8.00621 7.70809 5.62793 7.70809 3.98137C7.70809 2.3348 6.37329 1 4.72673 1C3.08016 1 1.74536 2.3348 1.74536 3.98137C1.74536 5.62793 3.08016 8.00621 4.72673 9ZM4.72676 5.77017C5.7147 5.77017 6.51558 4.96929 6.51558 3.98135C6.51558 2.99341 5.7147 2.19253 4.72676 2.19253C3.73882 2.19253 2.93794 2.99341 2.93794 3.98135C2.93794 4.96929 3.73882 5.77017 4.72676 5.77017Z"/>
</mask>
<path d="M4.72673 9L4.21 9.85615L4.72673 10.168L5.24346 9.85615L4.72673 9ZM6.70809 3.98137C6.70809 4.5689 6.45654 5.39965 5.97116 6.23149C5.48992 7.05621 4.85138 7.75674 4.21 8.14385L5.24346 9.85615C6.24863 9.24947 7.10078 8.26396 7.69859 7.23946C8.29224 6.22207 8.70809 5.0404 8.70809 3.98137H6.70809ZM4.72673 2C5.82101 2 6.70809 2.88709 6.70809 3.98137H8.70809C8.70809 1.78252 6.92558 0 4.72673 0V2ZM2.74536 3.98137C2.74536 2.88709 3.63245 2 4.72673 2V0C2.52788 0 0.745361 1.78252 0.745361 3.98137H2.74536ZM5.24346 8.14385C4.60207 7.75674 3.96353 7.05621 3.4823 6.23149C2.99691 5.39965 2.74536 4.5689 2.74536 3.98137H0.745361C0.745361 5.0404 1.16121 6.22207 1.75487 7.23946C2.35268 8.26396 3.20482 9.24947 4.21 9.85615L5.24346 8.14385ZM5.51558 3.98135C5.51558 4.417 5.16241 4.77017 4.72676 4.77017V6.77017C6.26698 6.77017 7.51558 5.52157 7.51558 3.98135H5.51558ZM4.72676 3.19253C5.16241 3.19253 5.51558 3.5457 5.51558 3.98135H7.51558C7.51558 2.44113 6.26698 1.19253 4.72676 1.19253V3.19253ZM3.93794 3.98135C3.93794 3.5457 4.29111 3.19253 4.72676 3.19253V1.19253C3.18654 1.19253 1.93794 2.44113 1.93794 3.98135H3.93794ZM4.72676 4.77017C4.29111 4.77017 3.93794 4.417 3.93794 3.98135H1.93794C1.93794 5.52157 3.18654 6.77017 4.72676 6.77017V4.77017Z" fill="#70CF98" mask="url(#path-1-outside-1_25_47)"/>
</svg>
