<svg width="12" height="16" viewBox="0 0 12 16" fill="none" xmlns="http://www.w3.org/2000/svg">
<mask id="path-1-outside-1_66_50" maskUnits="userSpaceOnUse" x="0.0561523" y="0.074585" width="12" height="16" fill="black">
<rect fill="white" x="0.0561523" y="0.074585" width="12" height="16"/>
<path fill-rule="evenodd" clip-rule="evenodd" d="M5.8731 14.0001C8.53342 12.3944 10.69 8.55186 10.69 5.89153C10.69 3.2312 8.53342 1.07458 5.8731 1.07458C3.21277 1.07458 1.05615 3.2312 1.05615 5.89153C1.05615 8.55186 3.21277 12.3944 5.8731 14.0001ZM5.87253 8.78164C7.46872 8.78164 8.76269 7.48767 8.76269 5.89148C8.76269 4.29528 7.46872 3.00131 5.87253 3.00131C4.27633 3.00131 2.98236 4.29528 2.98236 5.89148C2.98236 7.48767 4.27633 8.78164 5.87253 8.78164Z"/>
</mask>
<path d="M5.8731 14.0001L5.35637 14.8562L5.8731 15.1681L6.38983 14.8562L5.8731 14.0001ZM9.69004 5.89153C9.69004 6.98594 9.23304 8.4362 8.41548 9.83731C7.60207 11.2313 6.50463 12.4509 5.35637 13.1439L6.38983 14.8562C7.90189 13.9436 9.21292 12.4391 10.1429 10.8453C11.0687 9.25862 11.69 7.45744 11.69 5.89153H9.69004ZM5.8731 2.07458C7.98114 2.07458 9.69004 3.78349 9.69004 5.89153H11.69C11.69 2.67892 9.08571 0.074585 5.8731 0.074585V2.07458ZM2.05615 5.89153C2.05615 3.78349 3.76506 2.07458 5.8731 2.07458V0.074585C2.66049 0.074585 0.0561523 2.67892 0.0561523 5.89153H2.05615ZM6.38983 13.1439C5.24156 12.4509 4.14412 11.2313 3.33072 9.83731C2.51316 8.4362 2.05615 6.98594 2.05615 5.89153H0.0561523C0.0561523 7.45744 0.677458 9.25862 1.60329 10.8453C2.53327 12.4391 3.84431 13.9436 5.35637 14.8562L6.38983 13.1439ZM7.76269 5.89148C7.76269 6.93539 6.91644 7.78164 5.87253 7.78164V9.78164C8.02101 9.78164 9.76269 8.03996 9.76269 5.89148H7.76269ZM5.87253 4.00131C6.91644 4.00131 7.76269 4.84756 7.76269 5.89148H9.76269C9.76269 3.743 8.02101 2.00131 5.87253 2.00131V4.00131ZM3.98236 5.89148C3.98236 4.84756 4.82862 4.00131 5.87253 4.00131V2.00131C3.72405 2.00131 1.98236 3.743 1.98236 5.89148H3.98236ZM5.87253 7.78164C4.82862 7.78164 3.98236 6.93539 3.98236 5.89148H1.98236C1.98236 8.03996 3.72405 9.78164 5.87253 9.78164V7.78164Z" fill="white" mask="url(#path-1-outside-1_66_50)"/>
</svg>
